<svg version="1.1" viewBox="0.0 0.0 400.0 59.0" fill="none" stroke="none" stroke-linecap="square" stroke-miterlimit="10" xmlns:xlink="http://www.w3.org/1999/xlink" xmlns="http://www.w3.org/2000/svg"><clipPath id="p.0"><path d="m0 0l400.0 0l0 59.0l-400.0 0l0 -59.0z" clip-rule="nonzero"/></clipPath><g clip-path="url(#p.0)"><path fill="#000000" fill-opacity="0.0" d="m0 0l400.0 0l0 59.0l-400.0 0z" fill-rule="evenodd"/><path fill="#000000" fill-opacity="0.0" d="m-0.0055257217 -16.58504l471.59055 0l0 151.1811l-471.59055 0z" fill-rule="evenodd"/><path fill="#ffffff" d="m82.30698 61.17808l-11.234375 0l0 4.109379q0 3.421875 -0.8125 6.609375q-0.796875 3.1875 -2.78125 5.6875q-1.984375 2.484375 -5.250004 3.9375q-3.25 1.453125 -8.03125 1.453125q-2.34375 0 -4.546875 -0.765625q-2.1875 -0.765625 -4.125 -2.03125q-1.9375 -1.28125 -3.5625 -3.0q-1.625 -1.734375 -2.8125 -3.671875q-1.1875 -1.9375 -1.859375 -4.046875q-0.671875 -2.125 -0.671875 -4.203125q0 -2.1562538 0.515625 -4.125004q0.53125 -1.984375 1.703125 -3.625q1.1875 -1.65625 3.0625 -2.78125q1.890625 -1.125 3.28125 -1.3125l0 -18.0l35.57813 0l0 8.84375l-9.6875 0l0 8.078125l11.234375 0l0 8.84375zm-21.421879 -8.84375l0 -8.078125l-5.515625 0l0 8.078125l5.515625 0zm0 8.84375l-9.421875 0q-1.078125 0 -1.96875 0.171875q-0.875 0.171875 -1.46875 0.59375q-0.578125 0.40625 -0.9375 1.171875q-0.359375 0.765625 -0.359375 2.1406288q0 1.484375 0.78125 3.09375q0.796875 1.59375 2.03125 2.921875q1.234375 1.3125 2.5625 2.09375q1.34375 0.78125 2.296875 0.78125q1.703125 0 2.890625 -0.640625q1.1875 -0.640625 1.984375 -1.859375q0.796875 -1.234375 1.203125 -3.125q0.40625 -1.90625 0.40625 -4.3125l0 -3.0312538zm92.98572 21.796879l-33.609375 0l0 -8.90625q4.34375 0.21875 6.25 -2.328125q1.78125 -2.359375 1.78125 -5.125q0 -3.1093788 -1.8125 -5.500004q-1.90625 -2.515625 -4.8125 -2.515625q-4.40625 0 -6.171875 3.234375l0 21.140629l-10.1875 0l0 -38.718754l-5.765625 0l0 38.718754l-10.1875 0l0 -47.562504l37.78125 0l0 8.84375l-11.640625 0l0 6.140625q1.21875 -0.625 6.671875 -0.625q6.515625 0 11.40625 4.625q4.90625 4.609375 4.90625 11.062504q0 6.453125 -1.890625 8.6875l7.09375 0l0 -38.73438l10.1875 0l0 47.562504zm-6.53125 -41.70313l0 0zm-31.03125 -15.999998q0 -2.859375 2.015625 -4.890625q2.03125 -2.03125 4.90625 -2.03125q2.890625 0 4.90625 2.03125q2.015625 2.03125 2.015625 4.890625q0 2.90625 -2.015625 4.921875q-2.015625 1.9999981 -4.90625 1.9999981q-2.875 0 -4.90625 -1.9999981q-2.015625 -2.015625 -2.015625 -4.921875zm95.10919 41.03125q0 3.890625 -1.1875 7.0q-1.171875 3.09375 -3.453125 5.28125q-2.28125 2.171875 -5.515625 3.28125q-3.234375 1.109375 -8.6875 1.109375l0 -8.828125q8.65625 0 8.65625 -7.296875q0 -1.78125 -0.5625 -2.8125q-0.5625 -1.0312538 -1.609375 -1.6562538q-1.03125 -0.625 -2.640625 -0.90625q-1.59375 -0.296875 -2.125 -0.296875l0 4.109379q0 3.421875 -0.8125 6.609375q-0.796875 3.1875 -2.78125 5.6875q-1.984375 2.484375 -5.25 3.9375q-3.25 1.453125 -8.03125 1.453125q-2.34375 0 -4.546875 -0.765625q-2.1875 -0.765625 -4.125 -2.03125q-1.9375 -1.28125 -3.5625 -3.0q-1.625 -1.734375 -2.8125 -3.671875q-1.1875 -1.9375 -1.859375 -4.046875q-0.671875 -2.125 -0.671875 -4.203125q0 -2.1562538 0.515625 -4.125004q0.53125 -1.984375 1.703125 -3.625q1.1875 -1.65625 3.0625 -2.78125q1.890625 -1.125 3.28125 -1.3125l0 -18.0l35.578125 0l0 8.84375l-9.6875 0l0 8.078125l0.9375 0q3.171875 0 6.078125 0.953125q2.90625 0.9375 5.15625 2.71875q2.265625 1.78125 3.609375 4.40625q1.34375 2.609375 1.34375 5.890629zm-27.3125 -13.968754l0 -8.078125l-5.515625 0l0 8.078125l5.515625 0zm0 8.84375l-9.421875 0q-1.078125 0 -1.96875 0.171875q-0.875 0.171875 -1.46875 0.59375q-0.578125 0.40625 -0.9375 1.171875q-0.359375 0.765625 -0.359375 2.1406288q0 1.484375 0.78125 3.09375q0.796875 1.59375 2.03125 2.921875q1.234375 1.3125 2.5625 2.09375q1.34375 0.78125 2.296875 0.78125q1.703125 0 2.890625 -0.640625q1.1875 -0.640625 1.984375 -1.859375q0.796875 -1.234375 1.203125 -3.125q0.40625 -1.90625 0.40625 -4.3125l0 -3.0312538zm32.7771 21.796879l0 -47.562504l10.1875 0l0 38.73438l14.25 0l0 -24.437504q0 -2.671875 0.625 -5.375q0.640625 -2.703125 2.3125 -4.96875q1.6875 -2.265625 4.59375 -3.640625q2.921875 -1.390625 7.3125 -1.390625q3.515625 0 6.375 1.4375q2.859375 1.4375 5.046875 3.78125q2.1875 2.34375 3.75 5.3125q1.5625 2.96875 2.5625 6.140625q1.0 3.15625 1.484375 6.328125q0.5 3.171875 0.5 5.921875l0 7.859379q0 3.609375 -1.03125 5.984375q-1.015625 2.375 -3.0 3.703125q-1.984375 1.328125 -4.625 1.75q-2.625 0.421875 -5.8125 0.421875l-44.53125 0zm34.625 -8.828125l9.9375 0q0.765625 0 1.578125 -0.078125q0.828125 -0.09375 1.390625 -0.390625q0.5625 -0.3125 0.921875 -0.859375q0.359375 -0.546875 0.359375 -1.703125l0 -7.718754q0 -2.078125 -0.3125 -4.421875q-0.296875 -2.34375 -0.90625 -4.65625q-0.609375 -2.328125 -1.484375 -4.40625q-0.859375 -2.09375 -1.9375 -3.609375q-1.078125 -1.53125 -2.265625 -2.328125q-1.171875 -0.8125 -2.421875 -0.8125q-1.53125 0 -2.421875 0.515625q-0.890625 0.5 -1.4375 1.375q-0.546875 0.859375 -0.78125 2.09375q-0.21875 1.234375 -0.21875 2.5625l0 24.437504zm-11.984375 -48.875q0 -2.859375 2.015625 -4.890625q2.03125 -2.03125 4.90625 -2.03125q2.890625 0 4.90625 2.03125q2.015625 2.03125 2.015625 4.890625q0 2.90625 -2.015625 4.921875q-2.015625 1.9999981 -4.90625 1.9999981q-2.875 0 -4.90625 -1.9999981q-2.015625 -2.015625 -2.015625 -4.921875z" fill-rule="nonzero"/><path fill="#000000" fill-opacity="0.0" d="m27.994751 -35.58654l471.59055 0l0 130.17322l-471.59055 0z" fill-rule="evenodd"/><path fill="#434343" d="m97.99475 30.974083l-8.4375 0l0 3.09375q0 2.578125 -0.609375 4.96875q-0.59375 2.375 -2.09375 4.25q-1.484375 1.859375 -3.921875 2.953125q-2.4375 1.09375 -6.03125 1.09375q-1.765625 0 -3.40625 -0.578125q-1.640625 -0.578125 -3.109375 -1.53125q-1.453125 -0.953125 -2.671875 -2.25q-1.21875 -1.296875 -2.109375 -2.734375q-0.890625 -1.453125 -1.390625 -3.03125q-0.5 -1.59375 -0.5 -3.171875q0 -1.609375 0.390625 -3.09375q0.40625 -1.484375 1.28125 -2.71875q0.890625 -1.234375 2.296875 -2.0625q1.421875 -0.84375 2.453125 -1.0l0 -13.5l26.6875 0l0 6.625l-7.265625 0l0 6.0625l8.4375 0l0 6.625zm-16.078125 -6.625l0 -6.0625l-4.140625 0l0 6.0625l4.140625 0zm0 6.625l-7.078125 0q-0.796875 0 -1.46875 0.140625q-0.65625 0.140625 -1.09375 0.453125q-0.4375 0.296875 -0.703125 0.875q-0.265625 0.5625 -0.265625 1.59375q0 1.125 0.578125 2.328125q0.59375 1.1875 1.515625 2.1875q0.9375 1.0 1.9375 1.578125q1.0 0.578125 1.71875 0.578125q1.28125 0 2.171875 -0.46875q0.890625 -0.484375 1.46875 -1.40625q0.59375 -0.921875 0.90625 -2.34375q0.3125 -1.421875 0.3125 -3.234375l0 -2.28125zm69.75 16.359375l-25.21875 0l0 -6.671875q3.265625 0.140625 4.6875 -1.75q1.328125 -1.78125 1.328125 -3.859375q0 -2.328125 -1.34375 -4.109375q-1.421875 -1.890625 -3.609375 -1.890625q-3.296875 0 -4.640625 2.421875l0 15.859375l-7.640625 0l0 -29.046875l-4.3125 0l0 29.046875l-7.640625 0l0 -35.671875l28.328125 0l0 6.625l-8.734375 0l0 4.625q0.921875 -0.484375 5.015625 -0.484375q4.859375 0 8.53125 3.46875q3.6875 3.46875 3.6875 8.296875q0 4.828125 -1.40625 6.515625l5.328125 0l0 -29.046875l7.640625 0l0 35.671875zm-4.90625 -31.28125l0 0zm-23.265625 -12.0q0 -2.15625 1.515625 -3.671875q1.515625 -1.515625 3.671875 -1.515625q2.171875 0 3.671875 1.53125q1.515625 1.515625 1.515625 3.65625q0 2.1875 -1.515625 3.6875q-1.515625 1.5 -3.671875 1.5q-2.140625 0 -3.671875 -1.5q-1.515625 -1.5 -1.515625 -3.6875zm71.328125 30.78125q0 2.921875 -0.890625 5.25q-0.890625 2.3125 -2.59375 3.953125q-1.703125 1.625 -4.125 2.46875q-2.421875 0.828125 -6.53125 0.828125l0 -6.625q6.5 0 6.5 -5.46875q0 -1.34375 -0.421875 -2.109375q-0.421875 -0.78125 -1.203125 -1.25q-0.78125 -0.46875 -1.984375 -0.6875q-1.1875 -0.21875 -1.59375 -0.21875l0 3.09375q0 2.578125 -0.609375 4.96875q-0.59375 2.375 -2.09375 4.25q-1.484375 1.859375 -3.921875 2.953125q-2.4375 1.09375 -6.03125 1.09375q-1.765625 0 -3.40625 -0.578125q-1.640625 -0.578125 -3.109375 -1.53125q-1.453125 -0.953125 -2.671875 -2.25q-1.21875 -1.296875 -2.109375 -2.734375q-0.890625 -1.453125 -1.390625 -3.03125q-0.5 -1.59375 -0.5 -3.171875q0 -1.609375 0.390625 -3.09375q0.40625 -1.484375 1.28125 -2.71875q0.890625 -1.234375 2.296875 -2.0625q1.421875 -0.84375 2.453125 -1.0l0 -13.5l26.6875 0l0 6.625l-7.265625 0l0 6.0625l0.703125 0q2.375 0 4.546875 0.703125q2.1875 0.703125 3.875 2.046875q1.6875 1.34375 2.703125 3.296875q1.015625 1.953125 1.015625 4.4375zm-20.484375 -10.484375l0 -6.0625l-4.140625 0l0 6.0625l4.140625 0zm0 6.625l-7.078125 0q-0.796875 0 -1.46875 0.140625q-0.65625 0.140625 -1.09375 0.453125q-0.4375 0.296875 -0.703125 0.875q-0.265625 0.5625 -0.265625 1.59375q0 1.125 0.578125 2.328125q0.59375 1.1875 1.515625 2.1875q0.9375 1.0 1.9375 1.578125q1.0 0.578125 1.71875 0.578125q1.28125 0 2.171875 -0.46875q0.890625 -0.484375 1.46875 -1.40625q0.59375 -0.921875 0.90625 -2.34375q0.3125 -1.421875 0.3125 -3.234375l0 -2.28125zm24.578125 16.359375l0 -35.671875l7.640625 0l0 29.046875l10.6875 0l0 -18.328125q0 -2.0 0.46875 -4.03125q0.484375 -2.046875 1.75 -3.734375q1.265625 -1.6875 3.4375 -2.71875q2.1875 -1.046875 5.484375 -1.046875q2.640625 0 4.78125 1.078125q2.140625 1.078125 3.78125 2.84375q1.640625 1.765625 2.8125 3.984375q1.171875 2.21875 1.921875 4.59375q0.75 2.375 1.109375 4.765625q0.375 2.375 0.375 4.421875l0 5.890625q0 2.71875 -0.765625 4.5q-0.765625 1.78125 -2.25 2.78125q-1.484375 1.0 -3.46875 1.3125q-1.96875 0.3125 -4.359375 0.3125l-33.40625 0zm25.96875 -6.625l7.453125 0q0.578125 0 1.1875 -0.0625q0.625 -0.0625 1.046875 -0.28125q0.421875 -0.234375 0.6875 -0.640625q0.265625 -0.421875 0.265625 -1.296875l0 -5.78125q0 -1.546875 -0.234375 -3.3125q-0.234375 -1.765625 -0.6875 -3.5q-0.453125 -1.734375 -1.09375 -3.296875q-0.640625 -1.578125 -1.453125 -2.71875q-0.8125 -1.140625 -1.703125 -1.734375q-0.875 -0.609375 -1.8125 -0.609375q-1.140625 0 -1.8125 0.390625q-0.671875 0.375 -1.09375 1.03125q-0.40625 0.640625 -0.578125 1.578125q-0.171875 0.921875 -0.171875 1.90625l0 18.328125zm-8.96875 -36.65625q0 -2.15625 1.515625 -3.671875q1.515625 -1.515625 3.671875 -1.515625q2.171875 0 3.671875 1.53125q1.515625 1.515625 1.515625 3.65625q0 2.1875 -1.515625 3.6875q-1.515625 1.5 -3.671875 1.5q-2.140625 0 -3.671875 -1.5q-1.515625 -1.5 -1.515625 -3.6875z" fill-rule="nonzero"/><path fill="#434343" d="m247.94788 37.411583l0 -7.140625l14.015625 0l0 7.140625l-14.015625 0zm30.597656 9.921875l0 -7.484375l-15.234375 0l0 -6.25l16.140625 -23.640625l6.0 0l0 23.609375l4.625 0l0 6.28125l-4.625 0l0 7.484375l-6.90625 0zm0 -13.765625l0 -12.71875l-8.5625 12.71875l8.5625 0z" fill-rule="nonzero"/></g></svg>